<svg xmlns="http://www.w3.org/2000/svg" width="1600" height="900" viewBox="0 0 1600 900" role="img" aria-labelledby="title desc">
  <title id="title">Geeklog Memorandum</title>
  <desc id="desc">Development, Modernization and Architecture Roadmap for Geeklog CMS</desc>
  <defs>
    <linearGradient id="bg" x1="0" y1="0" x2="1" y2="1">
      <stop offset="0" stop-color="#031d3a"/>
      <stop offset="0.55" stop-color="#062b55"/>
      <stop offset="1" stop-color="#02152b"/>
    </linearGradient>
    <linearGradient id="blue" x1="0" y1="0" x2="1" y2="0">
      <stop offset="0" stop-color="#5caeff"/>
      <stop offset="1" stop-color="#2f82e6"/>
    </linearGradient>
    <linearGradient id="book" x1="0" y1="0" x2="1" y2="1">
      <stop offset="0" stop-color="#ffffff"/>
      <stop offset="1" stop-color="#e7ecf3"/>
    </linearGradient>
    <filter id="shadow" x="-40%" y="-40%" width="180%" height="180%">
      <feDropShadow dx="0" dy="18" stdDeviation="16" flood-color="#000" flood-opacity="0.38"/>
    </filter>
  </defs>

  <rect width="1600" height="900" fill="url(#bg)"/>

  <g opacity="0.14" stroke="#49a0ff" stroke-width="3" fill="none">
    <path d="M0 36 L56 0 L122 20 L142 77 L100 122 L40 103 Z"/>
    <path d="M100 122 L159 103 L204 145 L191 204 L132 223 L88 181 Z"/>
    <path d="M142 77 L207 55 L250 93 L238 151 L204 145"/>
    <path d="M238 151 L301 132 L350 176 L337 235 L276 251 L225 211 Z"/>
    <path d="M132 223 L190 204 L238 247 L225 304 L165 321 L119 280 Z"/>
    <path d="M30 300 L88 278 L132 320 L117 379 L58 395 L15 355 Z"/>
    <path d="M1510 654 C1420 670 1352 726 1322 810"/>
    <path d="M1600 700 C1495 703 1408 768 1377 884"/>
    <path d="M1600 770 C1521 782 1460 825 1439 900"/>
  </g>

  <g font-family="Arial, Helvetica, sans-serif">
    <text x="90" y="225" fill="#ffffff" font-size="116" font-weight="800" letter-spacing="1">GEEKLOG</text>
    <text x="90" y="350" fill="url(#blue)" font-size="108" font-weight="800" letter-spacing="1">MEMORANDUM</text>
    <text x="92" y="420" fill="#ffffff" font-size="38" font-weight="700">Development, Modernization</text>
    <text x="92" y="469" fill="#ffffff" font-size="38" font-weight="700">&amp; Architecture Roadmap</text>
    <rect x="92" y="502" width="72" height="5" rx="2.5" fill="#55a8ff"/>

    <g transform="translate(92 550)">
      <g>
        <circle cx="32" cy="32" r="31" fill="none" stroke="#2675bf" stroke-width="4"/>
        <text x="32" y="43" text-anchor="middle" fill="#58a9ff" font-size="34" font-weight="700">&lt;/&gt;</text>
        <text x="90" y="23" fill="#fff" font-size="24" font-weight="700">Development guide</text>
        <text x="90" y="56" fill="#cbd8e8" font-size="20">Best practices &amp; standards</text>
      </g>
      <g transform="translate(0 102)">
        <circle cx="32" cy="32" r="31" fill="none" stroke="#2675bf" stroke-width="4"/>
        <ellipse cx="32" cy="21" rx="17" ry="8" fill="none" stroke="#58a9ff" stroke-width="4"/>
        <path d="M15 21v23c0 10 34 10 34 0V21M15 32c0 10 34 10 34 0" fill="none" stroke="#58a9ff" stroke-width="4"/>
        <text x="90" y="23" fill="#fff" font-size="24" font-weight="700">Architecture &amp; APIs</text>
        <text x="90" y="56" fill="#cbd8e8" font-size="20">Data, Events, Services</text>
      </g>
      <g transform="translate(0 204)">
        <circle cx="32" cy="32" r="31" fill="none" stroke="#2675bf" stroke-width="4"/>
        <path d="M16 22h12v-9h9v9h12v10h-12v17h-9V32H16z" fill="#58a9ff"/>
        <text x="90" y="23" fill="#fff" font-size="24" font-weight="700">Active roadmap</text>
        <text x="90" y="56" fill="#cbd8e8" font-size="20">Priorities &amp; milestones</text>
      </g>
    </g>

    <g transform="translate(575 550)">
      <g>
        <circle cx="32" cy="32" r="31" fill="none" stroke="#2675bf" stroke-width="4"/>
        <path d="M32 14l18 7v13c0 13-8 22-18 27-10-5-18-14-18-27V21z" fill="none" stroke="#58a9ff" stroke-width="4"/>
        <path d="M24 35l6 6 11-13" fill="none" stroke="#58a9ff" stroke-width="4"/>
        <text x="90" y="23" fill="#fff" font-size="24" font-weight="700">Compatibility first</text>
        <text x="90" y="54" fill="#cbd8e8" font-size="20">Geeklog 2.1.1 → 2.2.2</text>
        <text x="90" y="81" fill="#cbd8e8" font-size="20">PHP 5.6 → 8.1</text>
      </g>
      <g transform="translate(0 120)">
        <circle cx="32" cy="32" r="31" fill="none" stroke="#2675bf" stroke-width="4"/>
        <circle cx="25" cy="25" r="8" fill="#58a9ff"/>
        <circle cx="44" cy="27" r="6" fill="#58a9ff"/>
        <path d="M10 52c1-13 9-20 18-20s17 7 18 20M37 52c1-9 6-14 13-14 7 0 12 5 13 14" fill="none" stroke="#58a9ff" stroke-width="4"/>
        <text x="90" y="23" fill="#fff" font-size="24" font-weight="700">Multisite ready</text>
        <text x="90" y="56" fill="#cbd8e8" font-size="20">Isolation, security, scalability</text>
      </g>
      <g transform="translate(0 222)">
        <circle cx="32" cy="32" r="31" fill="none" stroke="#2675bf" stroke-width="4"/>
        <path d="M17 46l11-22 19-9-9 19-21 12zm14-16l5 5" fill="none" stroke="#58a9ff" stroke-width="4" stroke-linejoin="round"/>
        <text x="90" y="23" fill="#fff" font-size="24" font-weight="700">Future vision</text>
        <text x="90" y="56" fill="#cbd8e8" font-size="20">Geeklog 2030 and beyond</text>
      </g>
    </g>

    <g transform="translate(1220 38)">
      <rect width="310" height="76" rx="18" fill="#63b1ff"/>
      <text x="34" y="49" fill="#06244a" font-size="32">🚀</text>
      <text x="83" y="32" fill="#06244a" font-size="22" font-weight="800">BUILDING THE FUTURE</text>
      <text x="83" y="58" fill="#06244a" font-size="22" font-weight="800">OF GEEKLOG CMS</text>
    </g>

    <g filter="url(#shadow)" transform="translate(1085 155)">
      <polygon points="0,46 68,14 68,665 0,626" fill="#d9dee6"/>
      <polygon points="68,14 414,60 414,662 68,665" fill="url(#book)"/>
      <polygon points="68,552 414,551 414,662 68,665" fill="#062c59"/>
      <text transform="translate(31 372) rotate(90)" fill="#08264a" font-size="28" font-weight="800">GEEKLOG</text>
      <text transform="translate(31 500) rotate(90)" fill="#3f91e8" font-size="28" font-weight="800">MEMORANDUM</text>
      <g transform="translate(183 125)">
        <polygon points="66,0 126,35 126,105 66,140 6,105 6,35" fill="#0957aa"/>
        <path d="M91 34L66 20 35 39v62l31 19 31-19V72H66v21h11v10l-11 7-20-12V45l20-12 14 8z" fill="#fff"/>
      </g>
      <text x="136" y="346" fill="#07264b" font-size="54" font-weight="800">GEEKLOG</text>
      <text x="129" y="397" fill="#348ce7" font-size="38" font-weight="800">MEMORANDUM</text>
      <line x1="205" y1="425" x2="283" y2="425" stroke="#348ce7" stroke-width="3"/>
      <text x="121" y="472" fill="#172f4b" font-size="21">Development, Modernization</text>
      <text x="153" y="502" fill="#172f4b" font-size="21">&amp; Architecture Roadmap</text>
      <text x="155" y="615" fill="#fff" font-size="30" font-weight="700">⬡ Geeklog</text>
    </g>
  </g>
</svg>